# xmcd
#
# Track frame offsets:
#	150
#	13898
#	31745
#	48532
#	65148
#	81465
#	101582
#	119008
#	132204
#	149459
#	166674
#	183913
#	187578
#
# Disc length: 3024 seconds
#
# Revision: 3
# Processed by: cddbd v1.5.2PL0 Copyright (c) Steve Scherf et al.
# Submitted via: EasyCDDAExtractor 16.0.6.1
#
DISCID=b20bce0d
DTITLE=Marlango - JB-183 Marlango
DYEAR=2004
DGENRE=Blues
TTITLE0=Madness
TTITLE1=Green on blue
TTITLE2=Gran sol
TTITLE3=Nico
TTITLE4=I suggest
TTITLE5=Enjoy the ride
TTITLE6=It's all right
TTITLE7=No use
TTITLE8=Once upon a time
TTITLE9=My love
TTITLE10=Maybe
TTITLE11=Frozen angora
TTITLE12=Every
EXTD=YEAR: 2004
EXTT0=
EXTT1=
EXTT2=
EXTT3=
EXTT4=
EXTT5=
EXTT6=
EXTT7=
EXTT8=
EXTT9=
EXTT10=
EXTT11=
EXTT12=
PLAYORDER=
